<svg width="164" height="23" viewBox="0 0 164 23" fill="none" xmlns="http://www.w3.org/2000/svg">
<path d="M5.90527 10.8564H4.38477V9.77539H5.84375C6.48828 9.77539 7.00977 9.68457 7.4082 9.50293C7.80664 9.32129 8.09668 9.06934 8.27832 8.74707C8.45996 8.4248 8.55078 8.05273 8.55078 7.63086C8.55078 7.22656 8.45117 6.85742 8.25195 6.52344C8.05273 6.18359 7.74512 5.91406 7.3291 5.71484C6.91309 5.50977 6.37695 5.40723 5.7207 5.40723C5.22852 5.40723 4.7832 5.50098 4.38477 5.68848C3.98633 5.87012 3.66992 6.125 3.43555 6.45312C3.20117 6.77539 3.08398 7.14746 3.08398 7.56934H1.3877C1.3877 7.02441 1.50195 6.53516 1.73047 6.10156C1.95898 5.66211 2.27246 5.29004 2.6709 4.98535C3.06934 4.6748 3.5293 4.4375 4.05078 4.27344C4.57812 4.10937 5.13477 4.02734 5.7207 4.02734C6.40625 4.02734 7.02734 4.10645 7.58398 4.26465C8.14062 4.41699 8.61816 4.64551 9.0166 4.9502C9.41504 5.25488 9.71973 5.63281 9.93066 6.08398C10.1416 6.53516 10.2471 7.05957 10.2471 7.65723C10.2471 8.09668 10.1445 8.50977 9.93945 8.89648C9.73438 9.2832 9.44141 9.62305 9.06055 9.91602C8.67969 10.209 8.22266 10.4404 7.68945 10.6104C7.15625 10.7744 6.56152 10.8564 5.90527 10.8564ZM4.38477 10.1094H5.90527C6.62598 10.1094 7.26758 10.1826 7.83008 10.3291C8.39258 10.4756 8.86719 10.6895 9.25391 10.9707C9.64062 11.252 9.93359 11.6006 10.1328 12.0166C10.3379 12.4268 10.4404 12.8984 10.4404 13.4316C10.4404 14.0293 10.3232 14.5596 10.0889 15.0225C9.86035 15.4854 9.53516 15.8779 9.11328 16.2002C8.69141 16.5225 8.19043 16.7656 7.61035 16.9297C7.03613 17.0938 6.40625 17.1758 5.7207 17.1758C5.16992 17.1758 4.625 17.1055 4.08594 16.9648C3.55273 16.8184 3.06934 16.5957 2.63574 16.2969C2.20215 15.9922 1.85352 15.6055 1.58984 15.1367C1.33203 14.668 1.20312 14.1055 1.20312 13.4492H2.89941C2.89941 13.877 3.0166 14.2695 3.25098 14.627C3.49121 14.9844 3.82227 15.2715 4.24414 15.4883C4.66602 15.6992 5.1582 15.8047 5.7207 15.8047C6.36523 15.8047 6.91016 15.7051 7.35547 15.5059C7.80664 15.3008 8.14941 15.0225 8.38379 14.6709C8.62402 14.3135 8.74414 13.9121 8.74414 13.4668C8.74414 13.0742 8.67969 12.7344 8.55078 12.4473C8.42773 12.1543 8.24316 11.9141 7.99707 11.7266C7.75684 11.5391 7.45508 11.4014 7.0918 11.3135C6.73438 11.2197 6.31836 11.1729 5.84375 11.1729H4.38477V10.1094ZM17.4102 5.33691L13.1738 17H11.4424L16.3203 4.20312H17.4365L17.4102 5.33691ZM20.9609 17L16.7158 5.33691L16.6895 4.20312H17.8057L22.7012 17H20.9609ZM20.7412 12.2627V13.6514H13.5518V12.2627H20.7412ZM26.1904 4.20312V17H24.4941V4.20312H26.1904ZM34.0742 4.20312L28.5195 11.2432H25.5137L25.25 9.83691H27.5088L31.9736 4.20312H34.0742ZM32.3691 17L27.5615 11.0234L28.5107 9.53809L34.4434 17H32.3691ZM40.7188 5.33691L36.4824 17H34.751L39.6289 4.20312H40.7451L40.7188 5.33691ZM44.2695 17L40.0244 5.33691L39.998 4.20312H41.1143L46.0098 17H44.2695ZM44.0498 12.2627V13.6514H36.8604V12.2627H44.0498ZM51.6436 10.8564H50.123V9.77539H51.582C52.2266 9.77539 52.748 9.68457 53.1465 9.50293C53.5449 9.32129 53.835 9.06934 54.0166 8.74707C54.1982 8.4248 54.2891 8.05273 54.2891 7.63086C54.2891 7.22656 54.1895 6.85742 53.9902 6.52344C53.791 6.18359 53.4834 5.91406 53.0674 5.71484C52.6514 5.50977 52.1152 5.40723 51.459 5.40723C50.9668 5.40723 50.5215 5.50098 50.123 5.68848C49.7246 5.87012 49.4082 6.125 49.1738 6.45312C48.9395 6.77539 48.8223 7.14746 48.8223 7.56934H47.126C47.126 7.02441 47.2402 6.53516 47.4688 6.10156C47.6973 5.66211 48.0107 5.29004 48.4092 4.98535C48.8076 4.6748 49.2676 4.4375 49.7891 4.27344C50.3164 4.10937 50.873 4.02734 51.459 4.02734C52.1445 4.02734 52.7656 4.10645 53.3223 4.26465C53.8789 4.41699 54.3564 4.64551 54.7549 4.9502C55.1533 5.25488 55.458 5.63281 55.6689 6.08398C55.8799 6.53516 55.9854 7.05957 55.9854 7.65723C55.9854 8.09668 55.8828 8.50977 55.6777 8.89648C55.4727 9.2832 55.1797 9.62305 54.7988 9.91602C54.418 10.209 53.9609 10.4404 53.4277 10.6104C52.8945 10.7744 52.2998 10.8564 51.6436 10.8564ZM50.123 10.1094H51.6436C52.3643 10.1094 53.0059 10.1826 53.5684 10.3291C54.1309 10.4756 54.6055 10.6895 54.9922 10.9707C55.3789 11.252 55.6719 11.6006 55.8711 12.0166C56.0762 12.4268 56.1787 12.8984 56.1787 13.4316C56.1787 14.0293 56.0615 14.5596 55.8271 15.0225C55.5986 15.4854 55.2734 15.8779 54.8516 16.2002C54.4297 16.5225 53.9287 16.7656 53.3486 16.9297C52.7744 17.0938 52.1445 17.1758 51.459 17.1758C50.9082 17.1758 50.3633 17.1055 49.8242 16.9648C49.291 16.8184 48.8076 16.5957 48.374 16.2969C47.9404 15.9922 47.5918 15.6055 47.3281 15.1367C47.0703 14.668 46.9414 14.1055 46.9414 13.4492H48.6377C48.6377 13.877 48.7549 14.2695 48.9893 14.627C49.2295 14.9844 49.5605 15.2715 49.9824 15.4883C50.4043 15.6992 50.8965 15.8047 51.459 15.8047C52.1035 15.8047 52.6484 15.7051 53.0938 15.5059C53.5449 15.3008 53.8877 15.0225 54.1221 14.6709C54.3623 14.3135 54.4824 13.9121 54.4824 13.4668C54.4824 13.0742 54.418 12.7344 54.2891 12.4473C54.166 12.1543 53.9814 11.9141 53.7354 11.7266C53.4951 11.5391 53.1934 11.4014 52.8301 11.3135C52.4727 11.2197 52.0566 11.1729 51.582 11.1729H50.123V10.1094ZM63.1484 5.33691L58.9121 17H57.1807L62.0586 4.20312H63.1748L63.1484 5.33691ZM66.6992 17L62.4541 5.33691L62.4277 4.20312H63.5439L68.4395 17H66.6992ZM66.4795 12.2627V13.6514H59.29V12.2627H66.4795ZM73.7393 4.20312V17H72.0693V4.20312H73.7393ZM77.8525 4.20312V5.5918H67.9648V4.20312H77.8525ZM81.1309 9.41504H84.6201C85.5576 9.41504 86.3486 9.57324 86.9932 9.88965C87.6377 10.2002 88.127 10.6367 88.4609 11.1992C88.7949 11.7617 88.9619 12.4209 88.9619 13.1768C88.9619 13.7393 88.8682 14.2549 88.6807 14.7236C88.4932 15.1865 88.2148 15.5908 87.8457 15.9365C87.4766 16.2764 87.0225 16.54 86.4834 16.7275C85.9443 16.9092 85.3232 17 84.6201 17H79.8389V4.20312H81.5352V15.6201H84.6201C85.2471 15.6201 85.7539 15.5059 86.1406 15.2773C86.5332 15.043 86.8203 14.7383 87.002 14.3633C87.1836 13.9883 87.2744 13.5869 87.2744 13.1592C87.2744 12.7314 87.1836 12.3389 87.002 11.9814C86.8203 11.624 86.5332 11.3398 86.1406 11.1289C85.7539 10.9121 85.2471 10.8037 84.6201 10.8037H81.1309V9.41504ZM105.433 4.20312V17H103.745V5.5918H97.4346V17H95.7383V4.20312H105.433ZM113.229 11.9814H109.81V10.6016H113.229C113.891 10.6016 114.427 10.4961 114.837 10.2852C115.247 10.0742 115.546 9.78125 115.733 9.40625C115.927 9.03125 116.023 8.60352 116.023 8.12305C116.023 7.68359 115.927 7.27051 115.733 6.88379C115.546 6.49707 115.247 6.18652 114.837 5.95215C114.427 5.71191 113.891 5.5918 113.229 5.5918H110.205V17H108.509V4.20312H113.229C114.195 4.20312 115.013 4.37012 115.681 4.7041C116.349 5.03809 116.855 5.50098 117.201 6.09277C117.547 6.67871 117.72 7.34961 117.72 8.10547C117.72 8.92578 117.547 9.62598 117.201 10.2061C116.855 10.7861 116.349 11.2285 115.681 11.5332C115.013 11.832 114.195 11.9814 113.229 11.9814ZM129.717 10.1973V11.0059C129.717 11.9668 129.597 12.8281 129.356 13.5898C129.116 14.3516 128.771 14.999 128.319 15.5322C127.868 16.0654 127.326 16.4727 126.693 16.7539C126.066 17.0352 125.363 17.1758 124.584 17.1758C123.828 17.1758 123.134 17.0352 122.501 16.7539C121.874 16.4727 121.329 16.0654 120.866 15.5322C120.409 14.999 120.055 14.3516 119.803 13.5898C119.551 12.8281 119.425 11.9668 119.425 11.0059V10.1973C119.425 9.23633 119.548 8.37793 119.794 7.62207C120.046 6.86035 120.4 6.21289 120.857 5.67969C121.314 5.14063 121.856 4.73047 122.483 4.44922C123.116 4.16797 123.811 4.02734 124.566 4.02734C125.346 4.02734 126.049 4.16797 126.676 4.44922C127.309 4.73047 127.851 5.14063 128.302 5.67969C128.759 6.21289 129.107 6.86035 129.348 7.62207C129.594 8.37793 129.717 9.23633 129.717 10.1973ZM128.038 11.0059V10.1797C128.038 9.41797 127.959 8.74414 127.801 8.1582C127.648 7.57227 127.423 7.08008 127.124 6.68164C126.825 6.2832 126.459 5.98145 126.025 5.77637C125.598 5.57129 125.111 5.46875 124.566 5.46875C124.039 5.46875 123.562 5.57129 123.134 5.77637C122.712 5.98145 122.349 6.2832 122.044 6.68164C121.745 7.08008 121.514 7.57227 121.35 8.1582C121.186 8.74414 121.104 9.41797 121.104 10.1797V11.0059C121.104 11.7734 121.186 12.4531 121.35 13.0449C121.514 13.6309 121.748 14.126 122.053 14.5303C122.363 14.9287 122.729 15.2305 123.151 15.4355C123.579 15.6406 124.057 15.7432 124.584 15.7432C125.135 15.7432 125.624 15.6406 126.052 15.4355C126.479 15.2305 126.84 14.9287 127.133 14.5303C127.432 14.126 127.657 13.6309 127.81 13.0449C127.962 12.4531 128.038 11.7734 128.038 11.0059ZM140.387 15.6201V17H133.61V15.6201H140.387ZM133.953 4.20312V17H132.257V4.20312H133.953ZM139.49 9.70508V11.085H133.61V9.70508H139.49ZM140.299 4.20312V5.5918H133.61V4.20312H140.299ZM144.263 4.20312V17H142.566V4.20312H144.263ZM152.146 4.20312L146.592 11.2432H143.586L143.322 9.83691H145.581L150.046 4.20312H152.146ZM150.441 17L145.634 11.0234L146.583 9.53809L152.516 17H150.441ZM158.782 4.20312V17H157.112V4.20312H158.782ZM162.896 4.20312V5.5918H153.008V4.20312H162.896Z" fill="#212529"/>
<line y1="22.5" x2="164" y2="22.5" stroke="#212529"/>
</svg>
